<mxfile host="app.diagrams.net" modified="2023-10-31T02:21:16.603Z" agent="Mozilla/5.0 (Windows NT 10.0; WOW64) AppleWebKit/537.36 (KHTML, like Gecko) Chrome/101.0.0.0 Safari/537.36" etag="whUJe9MkM3UaT3yEqI7o" version="22.0.8" type="device">
  <diagram name="Страница 1" id="muXXL4Ey7mvd0Wbdjn9m">
    <mxGraphModel dx="2049" dy="1091" grid="1" gridSize="10" guides="1" tooltips="1" connect="1" arrows="1" fold="1" page="1" pageScale="1" pageWidth="827" pageHeight="1169" math="0" shadow="0">
      <root>
        <mxCell id="0" />
        <mxCell id="1" parent="0" />
        <mxCell id="a79Gw9A_JN4MdzGQVX5V-1" value="&lt;p style=&quot;margin: 0px ; margin-top: 4px ; text-align: center&quot;&gt;&lt;b&gt;CModernGraphicsLibAdapter&lt;/b&gt;&lt;br&gt;&lt;/p&gt;&lt;hr size=&quot;1&quot;&gt;&lt;p style=&quot;margin: 0px ; margin-left: 4px&quot;&gt;- modernGraphicsRenderer: ModernGraphicsLib.IModernGraphicsRenderer&lt;/p&gt;&lt;p style=&quot;margin: 0px ; margin-left: 4px&quot;&gt;- currentPoint: Point&amp;nbsp;&lt;/p&gt;&lt;hr size=&quot;1&quot;&gt;&lt;p style=&quot;margin: 0px 0px 0px 4px&quot;&gt;+ MoveTo(x: number, y: number): void&lt;br&gt;&lt;/p&gt;&lt;p style=&quot;margin: 0px 0px 0px 4px&quot;&gt;+ LineTo(x: number, y: number: void&lt;br&gt;&lt;/p&gt;" style="verticalAlign=top;align=left;overflow=fill;fontSize=12;fontFamily=Helvetica;html=1;" parent="1" vertex="1">
          <mxGeometry x="160" y="410" width="450" height="130" as="geometry" />
        </mxCell>
        <mxCell id="a79Gw9A_JN4MdzGQVX5V-2" value="" style="group" parent="1" vertex="1" connectable="0">
          <mxGeometry x="10" y="10" width="590" height="380" as="geometry" />
        </mxCell>
        <mxCell id="a79Gw9A_JN4MdzGQVX5V-3" value="" style="rounded=1;whiteSpace=wrap;html=1;" parent="a79Gw9A_JN4MdzGQVX5V-2" vertex="1">
          <mxGeometry y="-6.55" width="580" height="386.55" as="geometry" />
        </mxCell>
        <mxCell id="a79Gw9A_JN4MdzGQVX5V-4" value="graphics_lib" style="text;html=1;strokeColor=none;fillColor=none;align=center;verticalAlign=middle;whiteSpace=wrap;rounded=0;fontSize=60;" parent="a79Gw9A_JN4MdzGQVX5V-2" vertex="1">
          <mxGeometry x="178.37209302325581" y="6.551724137931033" width="233.25581395348837" height="58.9655172413793" as="geometry" />
        </mxCell>
        <mxCell id="a79Gw9A_JN4MdzGQVX5V-5" value="&lt;p style=&quot;margin: 0px ; margin-top: 4px ; text-align: center&quot;&gt;&lt;i&gt;&amp;lt;&amp;lt;Interface&amp;gt;&amp;gt;&lt;/i&gt;&lt;br&gt;&lt;b&gt;ICanvas&lt;/b&gt;&lt;/p&gt;&lt;hr size=&quot;1&quot;&gt;&lt;p style=&quot;margin: 0px ; margin-left: 4px&quot;&gt;+ MoveTo(x: number, y: number)&lt;span&gt;: void&lt;/span&gt;&lt;/p&gt;&lt;p style=&quot;margin: 0px ; margin-left: 4px&quot;&gt;+ LineTo(x: number, y: number): void&lt;/p&gt;" style="verticalAlign=top;align=left;overflow=fill;fontSize=12;fontFamily=Helvetica;html=1;" parent="a79Gw9A_JN4MdzGQVX5V-2" vertex="1">
          <mxGeometry x="310" y="140" width="220" height="80" as="geometry" />
        </mxCell>
        <mxCell id="a79Gw9A_JN4MdzGQVX5V-6" value="" style="endArrow=block;dashed=1;endFill=0;endSize=12;html=1;rounded=0;fontSize=25;" parent="a79Gw9A_JN4MdzGQVX5V-2" source="a79Gw9A_JN4MdzGQVX5V-7" target="a79Gw9A_JN4MdzGQVX5V-5" edge="1">
          <mxGeometry width="160" relative="1" as="geometry">
            <mxPoint x="-123.48837209302326" y="140.86206896551724" as="sourcePoint" />
            <mxPoint x="-13.72093023255814" y="140.86206896551724" as="targetPoint" />
          </mxGeometry>
        </mxCell>
        <mxCell id="a79Gw9A_JN4MdzGQVX5V-7" value="&lt;p style=&quot;margin: 0px ; margin-top: 4px ; text-align: center&quot;&gt;&lt;b&gt;CCanvas&lt;br&gt;&lt;/b&gt;&lt;/p&gt;&lt;hr size=&quot;1&quot;&gt;&lt;p style=&quot;margin: 0px 0px 0px 4px&quot;&gt;+ MoveTo(x: number, y: number): void&lt;/p&gt;&lt;p style=&quot;margin: 0px 0px 0px 4px&quot;&gt;+ LineTo(x: number, y: number: void&lt;/p&gt;" style="verticalAlign=top;align=left;overflow=fill;fontSize=12;fontFamily=Helvetica;html=1;" parent="a79Gw9A_JN4MdzGQVX5V-2" vertex="1">
          <mxGeometry x="10" y="145" width="230" height="70" as="geometry" />
        </mxCell>
        <mxCell id="a79Gw9A_JN4MdzGQVX5V-8" value="" style="endArrow=block;dashed=1;endFill=0;endSize=12;html=1;rounded=0;fontSize=25;" parent="1" source="a79Gw9A_JN4MdzGQVX5V-1" target="a79Gw9A_JN4MdzGQVX5V-5" edge="1">
          <mxGeometry width="160" relative="1" as="geometry">
            <mxPoint x="1080" y="500" as="sourcePoint" />
            <mxPoint x="1240" y="500" as="targetPoint" />
          </mxGeometry>
        </mxCell>
        <mxCell id="a79Gw9A_JN4MdzGQVX5V-17" value="" style="group" parent="1" vertex="1" connectable="0">
          <mxGeometry x="790" y="10" width="1100" height="580" as="geometry" />
        </mxCell>
        <mxCell id="a79Gw9A_JN4MdzGQVX5V-18" value="" style="rounded=1;whiteSpace=wrap;html=1;" parent="a79Gw9A_JN4MdzGQVX5V-17" vertex="1">
          <mxGeometry width="960" height="580" as="geometry" />
        </mxCell>
        <mxCell id="a79Gw9A_JN4MdzGQVX5V-19" value="shape_drawing_lib" style="text;html=1;strokeColor=none;fillColor=none;align=center;verticalAlign=middle;whiteSpace=wrap;rounded=0;fontSize=60;" parent="a79Gw9A_JN4MdzGQVX5V-17" vertex="1">
          <mxGeometry x="250" width="520" height="90" as="geometry" />
        </mxCell>
        <mxCell id="a79Gw9A_JN4MdzGQVX5V-20" value="&lt;p style=&quot;margin: 0px ; margin-top: 4px ; text-align: center&quot;&gt;&lt;i&gt;&amp;lt;&amp;lt;Interface&amp;gt;&amp;gt;&lt;/i&gt;&lt;br&gt;&lt;b&gt;ICanvasDrawable&lt;/b&gt;&lt;/p&gt;&lt;hr size=&quot;1&quot;&gt;&lt;p style=&quot;margin: 0px ; margin-left: 4px&quot;&gt;draw(canvas: GraphicsLib.ICanvas): void;&lt;br&gt;&lt;/p&gt;" style="verticalAlign=top;align=left;overflow=fill;fontSize=12;fontFamily=Helvetica;html=1;" parent="a79Gw9A_JN4MdzGQVX5V-17" vertex="1">
          <mxGeometry x="450" y="120" width="250" height="80" as="geometry" />
        </mxCell>
        <mxCell id="a79Gw9A_JN4MdzGQVX5V-22" value="&lt;p style=&quot;margin: 0px ; margin-top: 4px ; text-align: center&quot;&gt;&lt;b&gt;CTriangle&lt;/b&gt;&lt;/p&gt;&lt;hr size=&quot;1&quot;&gt;&lt;p style=&quot;margin: 0px ; margin-left: 4px&quot;&gt;- firstVertex: Point&lt;/p&gt;&lt;p style=&quot;margin: 0px ; margin-left: 4px&quot;&gt;- secondVertex: Point&lt;br&gt;&lt;/p&gt;&lt;p style=&quot;margin: 0px ; margin-left: 4px&quot;&gt;- thirdVertex: Point&lt;br&gt;&lt;/p&gt;&lt;hr size=&quot;1&quot;&gt;&lt;p style=&quot;margin: 0px ; margin-left: 4px&quot;&gt;+ Triangle(firstVertex: Point, secondVertex: Point, thirdVertex: Point)&lt;/p&gt;&lt;p style=&quot;margin: 0px ; margin-left: 4px&quot;&gt;+ draw(GraphicsLib.ICanvas): void&lt;/p&gt;" style="verticalAlign=top;align=left;overflow=fill;fontSize=12;fontFamily=Helvetica;html=1;" parent="a79Gw9A_JN4MdzGQVX5V-17" vertex="1">
          <mxGeometry x="90" y="430" width="510" height="140" as="geometry" />
        </mxCell>
        <mxCell id="a79Gw9A_JN4MdzGQVX5V-23" value="&lt;p style=&quot;margin: 0px ; margin-top: 4px ; text-align: center&quot;&gt;&lt;b&gt;CRectangle&lt;/b&gt;&lt;/p&gt;&lt;hr size=&quot;1&quot;&gt;&lt;p style=&quot;margin: 0px ; margin-left: 4px&quot;&gt;- leftTopVertex: Point&lt;/p&gt;&lt;p style=&quot;margin: 0px ; margin-left: 4px&quot;&gt;- width: number&lt;br&gt;&lt;/p&gt;&lt;p style=&quot;margin: 0px ; margin-left: 4px&quot;&gt;- height: number&lt;br&gt;&lt;/p&gt;&lt;hr size=&quot;1&quot;&gt;&lt;p style=&quot;margin: 0px ; margin-left: 4px&quot;&gt;+ CRectangle(leftTop: Point, width: number, height: number)&lt;/p&gt;&lt;p style=&quot;margin: 0px ; margin-left: 4px&quot;&gt;+ draw(canvas: GraphicsLib.ICanvas): void&lt;/p&gt;" style="verticalAlign=top;align=left;overflow=fill;fontSize=12;fontFamily=Helvetica;html=1;" parent="a79Gw9A_JN4MdzGQVX5V-17" vertex="1">
          <mxGeometry x="560" y="250" width="380" height="140" as="geometry" />
        </mxCell>
        <mxCell id="a79Gw9A_JN4MdzGQVX5V-24" style="edgeStyle=orthogonalEdgeStyle;rounded=0;orthogonalLoop=1;jettySize=auto;html=1;exitX=0.5;exitY=1;exitDx=0;exitDy=0;fontSize=25;" parent="a79Gw9A_JN4MdzGQVX5V-17" edge="1">
          <mxGeometry relative="1" as="geometry">
            <mxPoint x="770" y="545" as="sourcePoint" />
            <mxPoint x="770" y="545" as="targetPoint" />
          </mxGeometry>
        </mxCell>
        <mxCell id="a79Gw9A_JN4MdzGQVX5V-25" value="&lt;p style=&quot;margin: 0px ; margin-top: 4px ; text-align: center&quot;&gt;&lt;b&gt;CanvasPainter&lt;/b&gt;&lt;br&gt;&lt;/p&gt;&lt;hr size=&quot;1&quot;&gt;&lt;p style=&quot;margin: 0px ; margin-left: 4px&quot;&gt;- canvas: GraphicsLib.ICanvas&lt;/p&gt;&lt;hr size=&quot;1&quot;&gt;&lt;p style=&quot;margin: 0px ; margin-left: 4px&quot;&gt;+ CCanvasPainter(canvas: GraphicsLib.ICanvas)&lt;/p&gt;&lt;p style=&quot;margin: 0px ; margin-left: 4px&quot;&gt;+ draw(drawable: ICanvasDrawable)&lt;/p&gt;" style="verticalAlign=top;align=left;overflow=fill;fontSize=12;fontFamily=Helvetica;html=1;" parent="a79Gw9A_JN4MdzGQVX5V-17" vertex="1">
          <mxGeometry x="45" y="95" width="325" height="130" as="geometry" />
        </mxCell>
        <mxCell id="a79Gw9A_JN4MdzGQVX5V-26" value="Use" style="endArrow=open;endSize=12;dashed=1;html=1;rounded=0;fontSize=25;" parent="a79Gw9A_JN4MdzGQVX5V-17" source="a79Gw9A_JN4MdzGQVX5V-25" target="a79Gw9A_JN4MdzGQVX5V-20" edge="1">
          <mxGeometry width="160" relative="1" as="geometry">
            <mxPoint x="370" y="10" as="sourcePoint" />
            <mxPoint x="530" y="10" as="targetPoint" />
          </mxGeometry>
        </mxCell>
        <mxCell id="a79Gw9A_JN4MdzGQVX5V-27" value="" style="endArrow=block;dashed=1;endFill=0;endSize=12;html=1;rounded=0;fontSize=25;" parent="a79Gw9A_JN4MdzGQVX5V-17" source="a79Gw9A_JN4MdzGQVX5V-22" target="a79Gw9A_JN4MdzGQVX5V-20" edge="1">
          <mxGeometry width="160" relative="1" as="geometry">
            <mxPoint x="430" y="330" as="sourcePoint" />
            <mxPoint x="590" y="330" as="targetPoint" />
          </mxGeometry>
        </mxCell>
        <mxCell id="a79Gw9A_JN4MdzGQVX5V-28" value="" style="endArrow=block;dashed=1;endFill=0;endSize=12;html=1;rounded=0;fontSize=25;" parent="a79Gw9A_JN4MdzGQVX5V-17" source="a79Gw9A_JN4MdzGQVX5V-23" target="a79Gw9A_JN4MdzGQVX5V-20" edge="1">
          <mxGeometry width="160" relative="1" as="geometry">
            <mxPoint x="191" y="450" as="sourcePoint" />
            <mxPoint x="691.5714285714284" y="210" as="targetPoint" />
          </mxGeometry>
        </mxCell>
        <mxCell id="a79Gw9A_JN4MdzGQVX5V-29" value="Use" style="endArrow=open;endSize=12;dashed=1;html=1;rounded=0;fontSize=25;" parent="a79Gw9A_JN4MdzGQVX5V-17" source="a79Gw9A_JN4MdzGQVX5V-23" target="fj8lOmAtx6cA9qwa9dUu-8" edge="1">
          <mxGeometry width="160" relative="1" as="geometry">
            <mxPoint x="560" y="439.997837837838" as="sourcePoint" />
            <mxPoint x="766.3157894736842" y="475" as="targetPoint" />
          </mxGeometry>
        </mxCell>
        <mxCell id="a79Gw9A_JN4MdzGQVX5V-30" value="Use" style="endArrow=open;endSize=12;dashed=1;html=1;rounded=0;fontSize=25;" parent="a79Gw9A_JN4MdzGQVX5V-17" source="a79Gw9A_JN4MdzGQVX5V-22" target="fj8lOmAtx6cA9qwa9dUu-8" edge="1">
          <mxGeometry width="160" relative="1" as="geometry">
            <mxPoint x="450" y="439.1700000000001" as="sourcePoint" />
            <mxPoint x="690" y="508.11764705882354" as="targetPoint" />
          </mxGeometry>
        </mxCell>
        <mxCell id="fj8lOmAtx6cA9qwa9dUu-8" value="&lt;p style=&quot;margin: 0px ; margin-top: 4px ; text-align: center&quot;&gt;&lt;b&gt;Point&lt;/b&gt;&lt;/p&gt;&lt;hr size=&quot;1&quot;&gt;&lt;p style=&quot;margin: 0px ; margin-left: 4px&quot;&gt;+ x: number&lt;/p&gt;&lt;p style=&quot;margin: 0px ; margin-left: 4px&quot;&gt;+ y: number&lt;/p&gt;&lt;hr size=&quot;1&quot;&gt;&lt;p style=&quot;margin: 0px ; margin-left: 4px&quot;&gt;+ Point(x:number, y: number)&lt;/p&gt;" style="verticalAlign=top;align=left;overflow=fill;fontSize=12;fontFamily=Helvetica;html=1;" vertex="1" parent="a79Gw9A_JN4MdzGQVX5V-17">
          <mxGeometry x="699.9973015873018" y="481.00444444444446" width="165.0793650793651" height="89" as="geometry" />
        </mxCell>
        <mxCell id="a79Gw9A_JN4MdzGQVX5V-31" value="" style="endArrow=diamondThin;endFill=0;endSize=24;html=1;rounded=0;fontSize=25;" parent="1" source="a79Gw9A_JN4MdzGQVX5V-5" target="a79Gw9A_JN4MdzGQVX5V-25" edge="1">
          <mxGeometry width="160" relative="1" as="geometry">
            <mxPoint x="1100" y="780" as="sourcePoint" />
            <mxPoint x="1260" y="780" as="targetPoint" />
          </mxGeometry>
        </mxCell>
        <mxCell id="fj8lOmAtx6cA9qwa9dUu-9" value="" style="group" vertex="1" connectable="0" parent="1">
          <mxGeometry x="10" y="625" width="650" height="445" as="geometry" />
        </mxCell>
        <mxCell id="fj8lOmAtx6cA9qwa9dUu-10" value="" style="rounded=1;whiteSpace=wrap;html=1;" vertex="1" parent="fj8lOmAtx6cA9qwa9dUu-9">
          <mxGeometry x="10" y="-15" width="650.0000000000001" height="444.99999999999994" as="geometry" />
        </mxCell>
        <mxCell id="fj8lOmAtx6cA9qwa9dUu-11" value="&lt;font style=&quot;font-size: 60px;&quot;&gt;modern_graphics_lib&lt;br&gt;&lt;/font&gt;" style="text;html=1;strokeColor=none;fillColor=none;align=center;verticalAlign=middle;whiteSpace=wrap;rounded=0;" vertex="1" parent="fj8lOmAtx6cA9qwa9dUu-9">
          <mxGeometry x="122.31182795698928" y="357.9309130434783" width="405.37634408602156" height="87.06521739130433" as="geometry" />
        </mxCell>
        <mxCell id="fj8lOmAtx6cA9qwa9dUu-12" value="&lt;p style=&quot;margin: 0px ; margin-top: 4px ; text-align: center&quot;&gt;&lt;b&gt;Point&lt;/b&gt;&lt;/p&gt;&lt;hr size=&quot;1&quot;&gt;&lt;p style=&quot;margin: 0px ; margin-left: 4px&quot;&gt;+ x: number&lt;/p&gt;&lt;p style=&quot;margin: 0px ; margin-left: 4px&quot;&gt;+ y: number&lt;/p&gt;&lt;hr size=&quot;1&quot;&gt;&lt;p style=&quot;margin: 0px ; margin-left: 4px&quot;&gt;+ Point(x:number, y: number)&lt;/p&gt;" style="verticalAlign=top;align=left;overflow=fill;fontSize=12;fontFamily=Helvetica;html=1;" vertex="1" parent="fj8lOmAtx6cA9qwa9dUu-9">
          <mxGeometry x="51.587301587301596" y="93.94444444444444" width="165.0793650793651" height="89" as="geometry" />
        </mxCell>
        <mxCell id="fj8lOmAtx6cA9qwa9dUu-13" value="&lt;p style=&quot;margin: 0px ; margin-top: 4px ; text-align: center&quot;&gt;&lt;b&gt;ModernGraphicsRenderer&lt;/b&gt;&lt;br&gt;&lt;/p&gt;&lt;hr size=&quot;1&quot;&gt;&lt;p style=&quot;margin: 0px ; margin-left: 4px&quot;&gt;&lt;span style=&quot;background-color: initial;&quot;&gt;- drawing: bool&lt;/span&gt;&lt;br&gt;&lt;/p&gt;&lt;hr size=&quot;1&quot;&gt;&lt;p style=&quot;margin: 0px ; margin-left: 4px&quot;&gt;&lt;span style=&quot;background-color: initial;&quot;&gt;+ beginDraw(): void&lt;/span&gt;&lt;br&gt;&lt;/p&gt;&lt;p style=&quot;margin: 0px ; margin-left: 4px&quot;&gt;+ drawLine(start: Point, end:&amp;nbsp;&lt;span&gt;Point): void&lt;/span&gt;&lt;/p&gt;&lt;p style=&quot;margin: 0px ; margin-left: 4px&quot;&gt;+ endDraw(): void&lt;/p&gt;" style="verticalAlign=top;align=left;overflow=fill;fontSize=12;fontFamily=Helvetica;html=1;" vertex="1" parent="fj8lOmAtx6cA9qwa9dUu-9">
          <mxGeometry x="309.52" y="64.28" width="340.48" height="105.72" as="geometry" />
        </mxCell>
        <mxCell id="fj8lOmAtx6cA9qwa9dUu-14" value="Use" style="endArrow=open;endSize=12;dashed=1;html=1;rounded=0;fontSize=25;" edge="1" parent="fj8lOmAtx6cA9qwa9dUu-9" source="fj8lOmAtx6cA9qwa9dUu-13" target="fj8lOmAtx6cA9qwa9dUu-12">
          <mxGeometry width="160" relative="1" as="geometry">
            <mxPoint x="2620.634920634921" y="-240.8064714714714" as="sourcePoint" />
            <mxPoint x="2785.7142857142862" y="-247.2208858858858" as="targetPoint" />
          </mxGeometry>
        </mxCell>
        <mxCell id="a79Gw9A_JN4MdzGQVX5V-16" value="" style="endArrow=diamondThin;endFill=0;endSize=24;html=1;rounded=0;fontSize=25;" parent="1" source="fj8lOmAtx6cA9qwa9dUu-13" target="a79Gw9A_JN4MdzGQVX5V-1" edge="1">
          <mxGeometry width="160" relative="1" as="geometry">
            <mxPoint x="450.00183868709655" y="679.28" as="sourcePoint" />
            <mxPoint x="2090" y="430" as="targetPoint" />
          </mxGeometry>
        </mxCell>
        <mxCell id="a79Gw9A_JN4MdzGQVX5V-15" value="" style="endArrow=diamondThin;endFill=1;endSize=24;html=1;rounded=0;fontSize=25;" parent="1" source="fj8lOmAtx6cA9qwa9dUu-12" target="a79Gw9A_JN4MdzGQVX5V-1" edge="1">
          <mxGeometry width="160" relative="1" as="geometry">
            <mxPoint x="166.22979452488653" y="708.9444444444443" as="sourcePoint" />
            <mxPoint x="1970" y="390.0040740740739" as="targetPoint" />
          </mxGeometry>
        </mxCell>
      </root>
    </mxGraphModel>
  </diagram>
</mxfile>
